<?xml version="1.0" encoding="utf-8"?>
<!-- Generator: Adobe Illustrator 24.3.0, SVG Export Plug-In . SVG Version: 6.00 Build 0)  -->
<svg version="1.1" xmlns="http://www.w3.org/2000/svg" xmlns:xlink="http://www.w3.org/1999/xlink" x="0px" y="0px"
	 viewBox="0 0 595.276 841.89" enable-background="new 0 0 595.276 841.89" xml:space="preserve">
<path fill="none" stroke="#000000" stroke-miterlimit="10" d="M39.183,473.268c18.702-10.318,54.331-31.761,74.968-49.816
	c20.637-18.059,45.223-43.934,47.802-61.991c2.579-18.056-5.118-23.256-11.567-23.256c-7.022,0-17.873,3.889-21.672,26.675
	c-3.224,19.347-15.146,73.664-27.31,135.161c8.907-44.478,15.934-72.877,47.728-72.877c16.121,0,22.572,10.96,22.572,18.699
	c0,10.963-5.802,22.569-5.802,32.242c0,23.216,13.329,25.796,21.927,25.796c32.674,0,66.918-32.828,66.918-56.043
	c0-14.618-10.168-21.344-19.842-21.344c-14.831,0-23.216,12.037-23.216,29.02c0,18.702,10.642,45.787,44.819,45.787
	c42.777,0,84.803-85.985,84.803-124.463c0-26.44-6.664-35.469-16.121-35.469c-18.057,0-32.89,33.789-32.89,83.19
	c0,46.703,15.81,74.299,45.479,74.299c38.272,0,84.863-78.261,84.863-124.604c0-20.55-4.613-34.233-18.035-34.233
	c-18.58,0-30.954,43.239-30.954,83.616c0,36.937,9.56,74.227,43.523,74.227c23.646,0,30.682-29.714,35.054-43.924
	c5.959-19.368,23.918-27.571,34.353-27.571c-15.022,0-35.67,15.329-35.67,37.736c0,27.566,12.528,37.389,28.216,37.389
	c15.689,0,33.688-17.938,33.688-43.077c0-25.139-13.116-32.594-26.234-32.048c19.944,0,20.365,13.516,43.536,13.516
	c11.164,0,19.686-8.186,25.697-14.744"/>
<path fill="none" stroke="#000000" stroke-miterlimit="10" d="M548.729,495.954c0,1.424-1.156,2.579-2.581,2.579
	c-1.424,0-2.579-1.155-2.579-2.579c0-1.426,1.155-2.58,2.579-2.58C547.573,493.374,548.729,494.529,548.729,495.954z"/>
</svg>
