<?xml version="1.0" encoding="utf-8"?>
<!-- Generator: Adobe Illustrator 24.3.0, SVG Export Plug-In . SVG Version: 6.00 Build 0)  -->
<svg version="1.1" id="Layer_1" xmlns="http://www.w3.org/2000/svg" xmlns:xlink="http://www.w3.org/1999/xlink" x="0px" y="0px"
	 viewBox="0 0 600 600" enable-background="new 0 0 600 600" xml:space="preserve">
<line fill="none" stroke="#000000" stroke-miterlimit="10" x1="0" y1="0" x2="600" y2="0"/>
<line fill="none" stroke="#000000" stroke-miterlimit="10" x1="0" y1="16.667" x2="600" y2="16.667"/>
<line fill="none" stroke="#000000" stroke-miterlimit="10" x1="0" y1="33.333" x2="600" y2="33.333"/>
<line fill="none" stroke="#000000" stroke-miterlimit="10" x1="0" y1="50" x2="600" y2="50"/>
<line fill="none" stroke="#000000" stroke-miterlimit="10" x1="0" y1="66.667" x2="600" y2="66.667"/>
<line fill="none" stroke="#000000" stroke-miterlimit="10" x1="0" y1="83.333" x2="600" y2="83.333"/>
<line fill="none" stroke="#000000" stroke-miterlimit="10" x1="0" y1="100" x2="600" y2="100"/>
<line fill="none" stroke="#000000" stroke-miterlimit="10" x1="0" y1="116.667" x2="600" y2="116.667"/>
<line fill="none" stroke="#000000" stroke-miterlimit="10" x1="0" y1="133.333" x2="600" y2="133.333"/>
<line fill="none" stroke="#000000" stroke-miterlimit="10" x1="0" y1="150" x2="600" y2="150"/>
<line fill="none" stroke="#000000" stroke-miterlimit="10" x1="0" y1="166.667" x2="600" y2="166.667"/>
<line fill="none" stroke="#000000" stroke-miterlimit="10" x1="0" y1="183.333" x2="600" y2="183.333"/>
<line fill="none" stroke="#000000" stroke-miterlimit="10" x1="0" y1="200" x2="600" y2="200"/>
<line fill="none" stroke="#000000" stroke-miterlimit="10" x1="0" y1="216.667" x2="600" y2="216.667"/>
<line fill="none" stroke="#000000" stroke-miterlimit="10" x1="0" y1="233.333" x2="600" y2="233.333"/>
<line fill="none" stroke="#000000" stroke-miterlimit="10" x1="0" y1="250" x2="600" y2="250"/>
<line fill="none" stroke="#000000" stroke-miterlimit="10" x1="0" y1="266.667" x2="600" y2="266.667"/>
<line fill="none" stroke="#000000" stroke-miterlimit="10" x1="0" y1="283.333" x2="600" y2="283.333"/>
<line fill="none" stroke="#000000" stroke-miterlimit="10" x1="0" y1="300" x2="600" y2="300"/>
<line fill="none" stroke="#000000" stroke-miterlimit="10" x1="0" y1="316.667" x2="600" y2="316.667"/>
<line fill="none" stroke="#000000" stroke-miterlimit="10" x1="0" y1="333.333" x2="600" y2="333.333"/>
<line fill="none" stroke="#000000" stroke-miterlimit="10" x1="0" y1="350" x2="600" y2="350"/>
<line fill="none" stroke="#000000" stroke-miterlimit="10" x1="0" y1="366.667" x2="600" y2="366.667"/>
<line fill="none" stroke="#000000" stroke-miterlimit="10" x1="0" y1="383.333" x2="600" y2="383.333"/>
<line fill="none" stroke="#000000" stroke-miterlimit="10" x1="0" y1="400" x2="600" y2="400"/>
<line fill="none" stroke="#000000" stroke-miterlimit="10" x1="0" y1="416.667" x2="600" y2="416.667"/>
<line fill="none" stroke="#000000" stroke-miterlimit="10" x1="0" y1="433.333" x2="600" y2="433.333"/>
<line fill="none" stroke="#000000" stroke-miterlimit="10" x1="0" y1="450" x2="600" y2="450"/>
<line fill="none" stroke="#000000" stroke-miterlimit="10" x1="0" y1="466.667" x2="600" y2="466.667"/>
<line fill="none" stroke="#000000" stroke-miterlimit="10" x1="0" y1="483.333" x2="600" y2="483.333"/>
<line fill="none" stroke="#000000" stroke-miterlimit="10" x1="0" y1="500" x2="600" y2="500"/>
<line fill="none" stroke="#000000" stroke-miterlimit="10" x1="0" y1="516.667" x2="600" y2="516.667"/>
<line fill="none" stroke="#000000" stroke-miterlimit="10" x1="0" y1="533.333" x2="600" y2="533.333"/>
<line fill="none" stroke="#000000" stroke-miterlimit="10" x1="0" y1="550" x2="600" y2="550"/>
<line fill="none" stroke="#000000" stroke-miterlimit="10" x1="0" y1="566.667" x2="600" y2="566.667"/>
<line fill="none" stroke="#000000" stroke-miterlimit="10" x1="0" y1="583.333" x2="600" y2="583.333"/>
<line fill="none" stroke="#000000" stroke-miterlimit="10" x1="0" y1="600" x2="600" y2="600"/>
</svg>
