<?xml version="1.0" encoding="utf-8"?>
<!-- Generator: Adobe Illustrator 24.3.0, SVG Export Plug-In . SVG Version: 6.00 Build 0)  -->
<svg version="1.1" id="Layer_1" xmlns="http://www.w3.org/2000/svg" xmlns:xlink="http://www.w3.org/1999/xlink" x="0px" y="0px"
	 viewBox="0 0 600 600" enable-background="new 0 0 600 600" xml:space="preserve">
<path fill="none" stroke="#000000" stroke-miterlimit="10" d="M314.265,0.001c21.374,11.087,43.712,18.964,67.881,19.468
	C407.686,20.001,432.602,11.827,456.38,0"/>
<path fill="none" stroke="#000000" stroke-miterlimit="10" d="M0,4.673c1.494-1.494,3.034-3.057,4.621-4.678"/>
<path fill="none" stroke="#000000" stroke-miterlimit="10" d="M279.535-0.002c31.952,20.754,65.073,39.324,102.611,40.106
	c38.78,0.808,76.12-18.457,110.221-40.1"/>
<path fill="none" stroke="#000000" stroke-miterlimit="10" d="M0,25.308c7.2-7.2,15.447-15.99,25.004-25.125"/>
<path fill="none" stroke="#000000" stroke-miterlimit="10" d="M248.272,0.002c41.905,27.246,83.989,59.699,133.873,60.738
	c51.015,1.063,99.539-32.611,141.474-60.742"/>
<path fill="none" stroke="#000000" stroke-miterlimit="10" d="M0,45.943C12.656,33.287,28.546,15.719,49.105-0.001"/>
<path fill="none" stroke="#000000" stroke-miterlimit="10" d="M213.371-0.005c54.117,27.527,105.089,80.054,168.775,81.381
	c64.678,1.347,125.352-53.14,173.67-81.377"/>
<path fill="none" stroke="#000000" stroke-miterlimit="10" d="M0,66.579C18.741,47.838,44.573,18.325,82.156-0.005"/>
<path fill="none" stroke="#000000" stroke-miterlimit="10" d="M0,87.214c28.8-28.8,74.346-83.039,153.546-83.039
	s142.2,96.036,228.6,97.836S547.8,5.975,600,4.175"/>
<path fill="none" stroke="#000000" stroke-miterlimit="10" d="M0,107.85c28.8-28.8,74.346-83.039,153.546-83.039
	s142.2,96.036,228.6,97.836S547.8,26.611,600,24.811"/>
<path fill="none" stroke="#000000" stroke-miterlimit="10" d="M0,128.485c28.8-28.8,74.346-83.039,153.546-83.039
	s142.2,96.036,228.6,97.836c86.4,1.8,165.655-96.036,217.854-97.836"/>
<path fill="none" stroke="#000000" stroke-miterlimit="10" d="M0,149.121c28.8-28.8,74.346-83.039,153.546-83.039
	s142.2,96.036,228.6,97.836c86.4,1.8,165.655-96.036,217.854-97.836"/>
<path fill="none" stroke="#000000" stroke-miterlimit="10" d="M0,169.756c28.8-28.8,74.346-83.039,153.546-83.039
	s142.2,96.036,228.6,97.836c86.4,1.8,165.655-96.036,217.854-97.836"/>
<path fill="none" stroke="#000000" stroke-miterlimit="10" d="M0,190.391c28.8-28.8,74.346-83.039,153.546-83.039
	s142.2,96.036,228.6,97.836c86.4,1.8,165.655-96.036,217.854-97.836"/>
<path fill="none" stroke="#000000" stroke-miterlimit="10" d="M0,211.027c28.8-28.8,74.346-83.039,153.546-83.039
	s142.2,96.036,228.6,97.836c86.4,1.8,165.655-96.036,217.854-97.836"/>
<path fill="none" stroke="#000000" stroke-miterlimit="10" d="M0,231.662c28.8-28.8,74.346-83.039,153.546-83.039
	s142.2,96.036,228.6,97.836c86.4,1.8,165.655-96.036,217.854-97.836"/>
<path fill="none" stroke="#000000" stroke-miterlimit="10" d="M0,252.298c28.8-28.8,74.346-83.039,153.546-83.039
	s142.2,96.036,228.6,97.836c86.4,1.8,165.655-96.036,217.854-97.836"/>
<path fill="none" stroke="#000000" stroke-miterlimit="10" d="M0,272.933c28.8-28.8,74.346-83.039,153.546-83.039
	s142.2,96.036,228.6,97.836S547.8,191.694,600,189.894"/>
<path fill="none" stroke="#000000" stroke-miterlimit="10" d="M0,293.569c28.8-28.8,74.346-83.039,153.546-83.039
	s142.2,96.036,228.6,97.836S547.8,212.33,600,210.53"/>
<path fill="none" stroke="#000000" stroke-miterlimit="10" d="M0,314.204c28.8-28.8,74.346-83.039,153.546-83.039
	s142.2,96.036,228.6,97.836S547.8,232.965,600,231.165"/>
<path fill="none" stroke="#000000" stroke-miterlimit="10" d="M0,334.84c28.8-28.8,74.346-83.039,153.546-83.039
	s142.2,96.036,228.6,97.836S547.8,253.6,600,251.8"/>
<path fill="none" stroke="#000000" stroke-miterlimit="10" d="M0,355.475c28.8-28.8,74.346-83.039,153.546-83.039
	s142.2,96.036,228.6,97.836c86.4,1.8,165.655-96.036,217.854-97.836"/>
<path fill="none" stroke="#000000" stroke-miterlimit="10" d="M0,376.11c28.8-28.8,74.346-83.039,153.546-83.039
	s142.2,96.036,228.6,97.836c86.4,1.8,165.655-96.036,217.854-97.836"/>
<path fill="none" stroke="#000000" stroke-miterlimit="10" d="M0,396.746c28.8-28.8,74.346-83.039,153.546-83.039
	s142.2,96.036,228.6,97.836c86.4,1.8,165.655-96.036,217.854-97.836"/>
<path fill="none" stroke="#000000" stroke-miterlimit="10" d="M0,417.381c28.8-28.8,74.346-83.039,153.546-83.039
	s142.2,96.036,228.6,97.836c86.4,1.8,165.655-96.036,217.854-97.836"/>
<path fill="none" stroke="#000000" stroke-miterlimit="10" d="M0,438.017c28.8-28.8,74.346-83.039,153.546-83.039
	s142.2,96.036,228.6,97.836S547.8,356.778,600,354.978"/>
<path fill="none" stroke="#000000" stroke-miterlimit="10" d="M0,458.652c28.8-28.8,74.346-83.039,153.546-83.039
	s142.2,96.036,228.6,97.836S547.8,377.413,600,375.613"/>
<path fill="none" stroke="#000000" stroke-miterlimit="10" d="M0,479.288c28.8-28.8,74.346-83.039,153.546-83.039
	s142.2,96.036,228.6,97.836S547.8,398.048,600,396.249"/>
<path fill="none" stroke="#000000" stroke-miterlimit="10" d="M0,499.923c28.8-28.8,74.346-83.039,153.546-83.039
	s142.2,96.036,228.6,97.836S547.8,418.684,600,416.884"/>
<path fill="none" stroke="#000000" stroke-miterlimit="10" d="M0,520.558c28.8-28.8,74.346-83.039,153.546-83.039
	s142.2,96.036,228.6,97.836S547.8,439.319,600,437.519"/>
<path fill="none" stroke="#000000" stroke-miterlimit="10" d="M0,541.194c28.8-28.8,74.346-83.039,153.546-83.039
	s142.2,96.036,228.6,97.836S547.8,459.955,600,458.155"/>
<path fill="none" stroke="#000000" stroke-miterlimit="10" d="M0,561.829c28.8-28.8,74.346-83.039,153.546-83.039
	s142.2,96.036,228.6,97.836S547.8,480.59,600,478.79"/>
<path fill="none" stroke="#000000" stroke-miterlimit="10" d="M0,582.465c28.8-28.8,74.346-83.039,153.546-83.039
	s142.2,96.036,228.6,97.836S547.8,501.226,600,499.426"/>
<path fill="none" stroke="#000000" stroke-miterlimit="10" d="M453.166,600C511.139,572.11,562.537,521.353,600,520.061"/>
<path fill="none" stroke="#000000" stroke-miterlimit="10" d="M3.072,600c28.943-29.414,74.034-79.939,150.474-79.939
	c58.106,0,107.492,51.692,163.797,79.938"/>
<path fill="none" stroke="#000000" stroke-miterlimit="10" d="M489.882,600.001c42.896-26.945,80.78-58.292,110.118-59.304"/>
<path fill="none" stroke="#000000" stroke-miterlimit="10" d="M23.559,599.999c28.754-27.752,69.582-59.303,129.987-59.303
	c45.663,0,85.941,31.924,128.423,59.305"/>
<path fill="none" stroke="#000000" stroke-miterlimit="10" d="M521.273,600.001c30.039-20.172,56.775-37.912,78.727-38.669"/>
<path fill="none" stroke="#000000" stroke-miterlimit="10" d="M47.074,599.997c26.503-20.724,60.922-38.665,106.472-38.665
	c34.347,0,65.648,18.062,97.131,38.667"/>
<path fill="none" stroke="#000000" stroke-miterlimit="10" d="M553.153,600c17.27-10.33,33.009-17.556,46.847-18.033"/>
<path fill="none" stroke="#000000" stroke-miterlimit="10" d="M79.01,599.996c20.858-10.7,45.424-18.029,74.536-18.029
	c21.916,0,42.592,7.354,62.866,18.03"/>
</svg>
