<?xml version="1.0" encoding="utf-8"?>
<!-- Generator: Adobe Illustrator 24.3.0, SVG Export Plug-In . SVG Version: 6.00 Build 0)  -->
<svg version="1.1" xmlns="http://www.w3.org/2000/svg" xmlns:xlink="http://www.w3.org/1999/xlink" x="0px" y="0px"
	 viewBox="0 0 595.276 841.89" enable-background="new 0 0 595.276 841.89" xml:space="preserve">
<path fill="none" stroke="#000000" stroke-miterlimit="10" d="M513.991,406.195c0,110.457-89.543,200-200,200
	c-104.934,0-190-85.066-190-190c0-99.687,80.813-180.5,180.5-180.5c94.703,0,171.475,76.772,171.475,171.475
	c0,89.968-72.933,162.901-162.901,162.901c-85.469,0-154.756-69.287-154.756-154.756c0-81.196,65.822-147.018,147.018-147.018
	c77.136,0,139.667,62.531,139.667,139.667c0,73.279-59.405,132.684-132.684,132.684c-69.615,0-126.05-56.434-126.05-126.05
	c0-66.135,53.613-119.747,119.747-119.747c62.828,0,113.76,50.932,113.76,113.76c0,59.687-48.385,108.072-108.072,108.072
	c-56.702,0-102.668-45.966-102.668-102.668c0-53.867,43.668-97.535,97.535-97.535c51.174,0,92.658,41.484,92.658,92.658
	c0,48.615-39.41,88.025-88.025,88.025c-46.184,0-83.624-37.44-83.624-83.624c0-43.875,35.568-79.443,79.443-79.443
	c41.681,0,75.471,33.789,75.471,75.471c0,39.597-32.1,71.697-71.697,71.697c-37.617,0-68.112-30.495-68.112-68.112
	c0-35.737,28.97-64.707,64.707-64.707c33.95,0,61.471,27.522,61.471,61.471c0,32.252-26.146,58.398-58.398,58.398
	c-30.64,0-55.478-24.838-55.478-55.478c0-29.108,23.596-52.704,52.704-52.704c27.652,0,50.069,22.417,50.069,50.069
	c0,26.27-21.296,47.565-47.565,47.565c-24.956,0-45.187-20.231-45.187-45.187c0-23.708,19.219-42.928,42.928-42.928
	c22.523,0,40.781,18.258,40.781,40.781c0,21.397-17.346,38.742-38.742,38.742c-20.327,0-36.805-16.478-36.805-36.805
	c0-19.311,15.654-34.965,34.965-34.965c18.345,0,33.217,14.872,33.217,33.217c0,17.428-14.128,31.556-31.556,31.556
	c-16.556,0-29.978-13.422-29.978-29.978c0-15.729,12.751-28.479,28.479-28.479c14.942,0,27.055,12.113,27.055,27.055
	c0,14.195-11.507,25.702-25.702,25.702c-13.485,0-24.417-10.932-24.417-24.417c0-12.811,10.385-23.196,23.196-23.196
	c12.17,0,22.037,9.866,22.037,22.037c0,11.562-9.373,20.935-20.935,20.935c-10.984,0-19.888-8.904-19.888-19.888
	c0-10.435,8.459-18.894,18.894-18.894c9.913,0,17.949,8.036,17.949,17.949c0,9.417-7.634,17.052-17.052,17.052
	c-8.946,0-16.199-7.253-16.199-16.199c0-8.499,6.89-15.389,15.389-15.389c8.074,0,14.62,6.545,14.62,14.62
	c0,7.67-6.218,13.889-13.889,13.889c-7.287,0-13.194-5.907-13.194-13.194c0-6.923,5.612-12.534,12.534-12.534
	c6.576,0,11.908,5.331,11.908,11.908c0,6.248-5.065,11.312-11.312,11.312c-5.935,0-10.747-4.811-10.747-10.747
	c0-5.638,4.571-10.209,10.209-10.209c5.357,0,9.699,4.342,9.699,9.699c0,5.089-4.125,9.214-9.214,9.214
	c-4.834,0-8.753-3.919-8.753-8.753c0-4.593,3.723-8.316,8.316-8.316c4.363,0,7.9,3.537,7.9,7.9c0,4.145-3.36,7.505-7.505,7.505
	c-3.938,0-7.13-3.192-7.13-7.13c0-3.741,3.032-6.773,6.773-6.773c3.554,0,6.434,2.881,6.434,6.434c0,3.376-2.737,6.113-6.113,6.113
	c-3.207,0-5.807-2.6-5.807-5.807c0-3.047,2.47-5.517,5.517-5.517c2.894,0,5.241,2.346,5.241,5.241c0,2.75-2.229,4.979-4.979,4.979
	c-2.612,0-4.73-2.118-4.73-4.73c0-2.482,2.012-4.493,4.493-4.493c2.358,0,4.269,1.911,4.269,4.269c0,2.24-1.816,4.055-4.055,4.055
	c-2.128,0-3.853-1.725-3.853-3.853c0-2.021,1.639-3.66,3.66-3.66c1.92,0,3.477,1.557,3.477,3.477c0,1.824-1.479,3.303-3.303,3.303
	c-1.733,0-3.138-1.405-3.138-3.138c0-1.646,1.335-2.981,2.981-2.981c1.564,0,2.832,1.268,2.832,2.832c0,1.486-1.205,2.69-2.69,2.69
	c-1.412,0-2.556-1.144-2.556-2.556c0-1.341,1.087-2.428,2.428-2.428c1.274,0,2.307,1.033,2.307,2.307
	c0,1.21-0.981,2.191-2.191,2.191c-1.15,0-2.082-0.932-2.082-2.082c0-1.092,0.885-1.978,1.978-1.978c1.038,0,1.879,0.841,1.879,1.879
	c0,0.986-0.799,1.785-1.785,1.785c-0.936,0-1.696-0.759-1.696-1.696c0-0.89,0.721-1.611,1.611-1.611c0.845,0,1.53,0.685,1.53,1.53
	c0,0.803-0.651,1.454-1.454,1.454c-0.763,0-1.381-0.618-1.381-1.381c0-0.725,0.587-1.312,1.312-1.312
	c0.688,0,1.246,0.558,1.246,1.246"/>
</svg>
